<?xml version="1.0" encoding="UTF-8" standalone="no"?>
<!DOCTYPE svg PUBLIC "-//W3C//DTD SVG 1.1//EN"
 "http://www.w3.org/Graphics/SVG/1.1/DTD/svg11.dtd">
<!-- Generated by graphviz version 9.0.0 (20230911.1827)
 -->
<!-- Title: build_graph Pages: 1 -->
<svg width="377pt" height="404pt"
 viewBox="0.00 0.00 377.37 404.00" xmlns="http://www.w3.org/2000/svg" xmlns:xlink="http://www.w3.org/1999/xlink">
<g id="graph0" class="graph" transform="scale(1 1) rotate(0) translate(4 400)">
<title>build_graph</title>
<polygon fill="white" stroke="none" points="-4,4 -4,-400 373.37,-400 373.37,4 -4,4"/>
<!-- sources -->
<g id="node1" class="node">
<title>sources</title>
<text text-anchor="middle" x="28.25" y="-300.95" font-family="Times,serif" font-size="14.00">sources</text>
</g>
<!-- compile -->
<g id="node2" class="node">
<title>compile</title>
<ellipse fill="none" stroke="black" cx="133.25" cy="-234" rx="41.12" ry="18"/>
<text text-anchor="middle" x="133.25" y="-228.95" font-family="Times,serif" font-size="14.00">compile</text>
</g>
<!-- sources&#45;&gt;compile -->
<g id="edge1" class="edge">
<title>sources&#45;&gt;compile</title>
<path fill="none" stroke="black" d="M53.67,-288.05C68.24,-278.34 86.65,-266.06 102.1,-255.77"/>
<polygon fill="black" stroke="black" points="103.63,-258.95 110.01,-250.5 99.75,-253.13 103.63,-258.95"/>
</g>
<!-- unit_test -->
<g id="node3" class="node">
<title>unit_test</title>
<ellipse fill="none" stroke="black" cx="82.25" cy="-162" rx="42.65" ry="18"/>
<text text-anchor="middle" x="82.25" y="-156.95" font-family="Times,serif" font-size="14.00">unit_test</text>
</g>
<!-- compile&#45;&gt;unit_test -->
<g id="edge2" class="edge">
<title>compile&#45;&gt;unit_test</title>
<path fill="none" stroke="black" d="M121.16,-216.41C115.13,-208.13 107.7,-197.92 100.95,-188.66"/>
<polygon fill="black" stroke="black" points="103.86,-186.71 95.14,-180.69 98.2,-190.84 103.86,-186.71"/>
</g>
<!-- package -->
<g id="node4" class="node">
<title>package</title>
<ellipse fill="none" stroke="black" cx="184.25" cy="-162" rx="41.12" ry="18"/>
<text text-anchor="middle" x="184.25" y="-156.95" font-family="Times,serif" font-size="14.00">package</text>
</g>
<!-- compile&#45;&gt;package -->
<g id="edge3" class="edge">
<title>compile&#45;&gt;package</title>
<path fill="none" stroke="black" d="M145.34,-216.41C151.37,-208.13 158.8,-197.92 165.55,-188.66"/>
<polygon fill="black" stroke="black" points="168.3,-190.84 171.36,-180.69 162.64,-186.71 168.3,-190.84"/>
</g>
<!-- integration_test -->
<g id="node8" class="node">
<title>integration_test</title>
<ellipse fill="none" stroke="black" cx="245.25" cy="-90" rx="68.24" ry="18"/>
<text text-anchor="middle" x="245.25" y="-84.95" font-family="Times,serif" font-size="14.00">integration_test</text>
</g>
<!-- package&#45;&gt;integration_test -->
<g id="edge7" class="edge">
<title>package&#45;&gt;integration_test</title>
<path fill="none" stroke="black" d="M198.4,-144.76C205.76,-136.32 214.92,-125.8 223.19,-116.31"/>
<polygon fill="black" stroke="black" points="225.83,-118.61 229.76,-108.77 220.55,-114.01 225.83,-118.61"/>
</g>
<!-- direct_deps -->
<g id="node5" class="node">
<title>direct_deps</title>
<text text-anchor="middle" x="133.25" y="-372.95" font-family="Times,serif" font-size="14.00">direct_deps</text>
</g>
<!-- resolve_deps -->
<g id="node6" class="node">
<title>resolve_deps</title>
<ellipse fill="none" stroke="black" cx="133.25" cy="-306" rx="59.03" ry="18"/>
<text text-anchor="middle" x="133.25" y="-300.95" font-family="Times,serif" font-size="14.00">resolve_deps</text>
</g>
<!-- direct_deps&#45;&gt;resolve_deps -->
<g id="edge4" class="edge">
<title>direct_deps&#45;&gt;resolve_deps</title>
<path fill="none" stroke="black" d="M133.25,-360.05C133.25,-352.68 133.25,-343.84 133.25,-335.51"/>
<polygon fill="black" stroke="black" points="136.75,-335.79 133.25,-325.79 129.75,-335.79 136.75,-335.79"/>
</g>
<!-- resolve_deps&#45;&gt;compile -->
<g id="edge5" class="edge">
<title>resolve_deps&#45;&gt;compile</title>
<path fill="none" stroke="black" d="M133.25,-287.7C133.25,-280.41 133.25,-271.73 133.25,-263.54"/>
<polygon fill="black" stroke="black" points="136.75,-263.62 133.25,-253.62 129.75,-263.62 136.75,-263.62"/>
</g>
<!-- code_gen -->
<g id="node7" class="node">
<title>code_gen</title>
<ellipse fill="none" stroke="black" cx="256.25" cy="-306" rx="46.23" ry="18"/>
<text text-anchor="middle" x="256.25" y="-300.95" font-family="Times,serif" font-size="14.00">code_gen</text>
</g>
<!-- code_gen&#45;&gt;compile -->
<g id="edge6" class="edge">
<title>code_gen&#45;&gt;compile</title>
<path fill="none" stroke="black" d="M230.76,-290.5C212.43,-280.06 187.5,-265.87 167.43,-254.45"/>
<polygon fill="black" stroke="black" points="169.19,-251.42 158.76,-249.52 165.72,-257.51 169.19,-251.42"/>
</g>
<!-- output -->
<g id="node11" class="node">
<title>output</title>
<text text-anchor="middle" x="245.25" y="-12.95" font-family="Times,serif" font-size="14.00">output</text>
</g>
<!-- integration_test&#45;&gt;output -->
<g id="edge10" class="edge">
<title>integration_test&#45;&gt;output</title>
<path fill="none" stroke="black" d="M245.25,-71.7C245.25,-64.21 245.25,-55.26 245.25,-46.88"/>
<polygon fill="black" stroke="black" points="248.75,-47.14 245.25,-37.14 241.75,-47.14 248.75,-47.14"/>
</g>
<!-- static_input_files -->
<g id="node9" class="node">
<title>static_input_files</title>
<text text-anchor="middle" x="306.25" y="-228.95" font-family="Times,serif" font-size="14.00">static_input_files</text>
</g>
<!-- asset_pipeline -->
<g id="node10" class="node">
<title>asset_pipeline</title>
<ellipse fill="none" stroke="black" cx="306.25" cy="-162" rx="63.12" ry="18"/>
<text text-anchor="middle" x="306.25" y="-156.95" font-family="Times,serif" font-size="14.00">asset_pipeline</text>
</g>
<!-- static_input_files&#45;&gt;asset_pipeline -->
<g id="edge8" class="edge">
<title>static_input_files&#45;&gt;asset_pipeline</title>
<path fill="none" stroke="black" d="M306.25,-216.05C306.25,-208.68 306.25,-199.84 306.25,-191.51"/>
<polygon fill="black" stroke="black" points="309.75,-191.79 306.25,-181.79 302.75,-191.79 309.75,-191.79"/>
</g>
<!-- asset_pipeline&#45;&gt;integration_test -->
<g id="edge9" class="edge">
<title>asset_pipeline&#45;&gt;integration_test</title>
<path fill="none" stroke="black" d="M291.48,-144.05C284.22,-135.71 275.31,-125.49 267.26,-116.25"/>
<polygon fill="black" stroke="black" points="270.08,-114.17 260.87,-108.93 264.81,-118.77 270.08,-114.17"/>
</g>
</g>
</svg>
